{
	"asset":{
		"generator":"Khronos glTF Blender I/O v3.6.28",
		"version":"2.0"
	},
	"scene":0,
	"scenes":[
		{
			"name":"Scene",
			"nodes":[
				0
			]
		}
	],
	"nodes":[
		{
			"mesh":0,
			"name":"Plane.001",
			"rotation":[
				-0.2588190734386444,
				0,
				0,
				0.965925931930542
			],
			"translation":[
				0.018614187836647034,
				1.6898201704025269,
				-2.384700298309326
			]
		}
	],
	"materials":[
		{
			"doubleSided":true,
			"name":"Display.001",
			"pbrMetallicRoughness":{
				"baseColorTexture":{
					"index":0
				},
				"metallicFactor":0,
				"roughnessFactor":0.5
			}
		}
	],
	"meshes":[
		{
			"name":"Plane.001",
			"primitives":[
				{
					"attributes":{
						"POSITION":0,
						"TEXCOORD_0":1
					},
					"indices":2,
					"material":0
				}
			]
		}
	],
	"textures":[
		{
			"sampler":0,
			"source":0
		}
	],
	"images":[
		{
			"bufferView":3,
			"mimeType":"image/jpeg",
			"name":"Bake_Col_3"
		}
	],
	"accessors":[
		{
			"bufferView":0,
			"componentType":5126,
			"count":25,
			"max":[
				2.331186056137085,
				1.4548263549804688,
				7.748603820800781e-07
			],
			"min":[
				-2.3311870098114014,
				-1.4548261165618896,
				-3.2782554626464844e-07
			],
			"type":"VEC3"
		},
		{
			"bufferView":1,
			"componentType":5126,
			"count":25,
			"type":"VEC2"
		},
		{
			"bufferView":2,
			"componentType":5123,
			"count":96,
			"type":"SCALAR"
		}
	],
	"bufferViews":[
		{
			"buffer":0,
			"byteLength":300,
			"byteOffset":0,
			"target":34962
		},
		{
			"buffer":0,
			"byteLength":200,
			"byteOffset":300,
			"target":34962
		},
		{
			"buffer":0,
			"byteLength":192,
			"byteOffset":500,
			"target":34963
		},
		{
			"buffer":0,
			"byteLength":1260317,
			"byteOffset":692
		}
	],
	"samplers":[
		{
			"magFilter":9729,
			"minFilter":9987
		}
	],
	"buffers":[
		{
			"byteLength":1261012,
			"uri":"data:application/octet-stream;base64,"
		}
	]
}
